# xmcd
# 
# Track frame offsets:
#     150
#     22971
#     38400
#     53815
#     69822
#     99684
#     116299
#     128809
#     144308
#     166271
#     198087
#     219150
#     238386
# 
# Disc length: 3767
# 
# Revision: 1
# Processed by: cddbd v1.5.2PL0 Copyright (c) Steve Scherf et al.
# Submitted via: fre:ac v1.0.31
# 
DISCID=a20eb50d
DTITLE=Donny Hathaway - Never My Love The Anthology Disc 4
DYEAR=2013
DGENRE=R&B
TTITLE0=I (WHO HAVE NOTHING)
TTITLE1=YOU'VE GOT A FRIEND
TTITLE2=BABY I LOVE YOU
TTITLE3=BE REAL BLACK FOR ME
TTITLE4=YOU'VE LOST THAT LOVING FEELING
TTITLE5=FOR ALL WE KNOW
TTITLE6=WHERE IS THE LOVE
TTITLE7=WHEN LOVE HAS GROWN
TTITLE8=COME YE DISCONSOLATE
TTITLE9=MOOD
TTITLE10=THE CLOSER I GET TO YOU
TTITLE11=YOU ARE MY HEAVEN
TTITLE12=BACK TOGETHER AGAIN
EXTD=
EXTT0=
EXTT1=
EXTT2=
EXTT3=
EXTT4=
EXTT5=
EXTT6=
EXTT7=
EXTT8=
EXTT9=
EXTT10=
EXTT11=
EXTT12=
PLAYORDER=
